<?xml version="1.0" encoding="UTF-8" standalone="no"?>
<svg
   xmlns:dc="http://purl.org/dc/elements/1.1/"
   xmlns:cc="http://creativecommons.org/ns#"
   xmlns:rdf="http://www.w3.org/1999/02/22-rdf-syntax-ns#"
   xmlns:svg="http://www.w3.org/2000/svg"
   xmlns="http://www.w3.org/2000/svg"
   xmlns:xlink="http://www.w3.org/1999/xlink"
   xmlns:sodipodi="http://sodipodi.sourceforge.net/DTD/sodipodi-0.dtd"
   xmlns:inkscape="http://www.inkscape.org/namespaces/inkscape"
   inkscape:version="1.0beta1 (fe3e306, 2019-09-17)"
   sodipodi:docname="third-feature-icon.svg"
   id="svg4404"
   version="1.1"
   viewBox="0 0 56 56"
   height="56"
   width="56">
  <metadata
     id="metadata4408">
    <rdf:RDF>
      <cc:Work
         rdf:about="">
        <dc:format>image/svg+xml</dc:format>
        <dc:type
           rdf:resource="http://purl.org/dc/dcmitype/StillImage" />
        <dc:title />
      </cc:Work>
    </rdf:RDF>
  </metadata>
  <sodipodi:namedview
     inkscape:current-layer="svg4404"
     inkscape:window-maximized="1"
     inkscape:window-y="0"
     inkscape:window-x="0"
     inkscape:cy="59.716514"
     inkscape:cx="12.055826"
     inkscape:zoom="5.6"
     showgrid="false"
     id="namedview4406"
     inkscape:window-height="1052"
     inkscape:window-width="1920"
     inkscape:pageshadow="2"
     inkscape:pageopacity="0"
     guidetolerance="10"
     gridtolerance="10"
     objecttolerance="10"
     borderopacity="1"
     inkscape:document-rotation="0"
     bordercolor="#666666"
     pagecolor="#ffffff" />
  <defs
     id="defs4396">
    <path
       inkscape:connector-curvature="0"
       d="M 0,0 H 24 V 24 H 0 Z"
       id="a" />
  </defs>
  <clipPath
     id="clipPath4400">
    <use
       height="100%"
       width="100%"
       y="0"
       x="0"
       id="use4398"
       overflow="visible"
       xlink:href="#a" />
  </clipPath>
  <path
     style="stroke-width:2.33333;fill:#37474f;fill-opacity:1"
     inkscape:connector-curvature="0"
     id="path4402"
     d="M 30.333333,22.166668 H 42 V 17.5 H 30.333333 Z m 0,16.333332 H 42 V 33.833332 H 30.333333 Z M 44.333332,49 H 11.666668 C 9.1,49 7,46.9 7,44.333332 V 11.666668 C 7,9.1 9.1,7 11.666668,7 H 44.333332 C 46.9,7 49,9.1 49,11.666668 V 44.333332 C 49,46.9 46.9,49 44.333332,49 Z M 14,25.666667 H 25.666667 V 14 H 14 Z m 2.333333,-9.333334 h 6.999999 v 6.999999 H 16.333333 Z M 14,42 H 25.666667 V 30.333333 H 14 Z m 2.333333,-9.333332 h 6.999999 v 6.999999 h -6.999999 z"
     clip-rule="evenodd"
     fill-rule="evenodd" />
</svg>
